<svg width="647" height="232" viewBox="0 0 647 232" fill="none" xmlns="http://www.w3.org/2000/svg">
<path d="M293.491 109.789C293.491 159.598 313.158 196.152 349.499 196.152C371.09 196.152 389.046 177.341 393.322 147.626C394.391 140.786 393.749 138.434 388.405 137.152C381.778 135.441 379.854 136.083 378.572 141.641C374.082 160.88 360.401 171.569 349.499 171.569C335.443 171.569 321.708 153.398 321.708 107.223C321.708 68.6693 335.817 48.2229 349.499 48.2229C360.187 48.0092 370.448 65.3246 370.448 81.9987C370.448 94.0696 375.579 96.3214 383.275 91.4047C396.101 83.2814 398.88 76.4407 394.177 65.3246C386.695 43.9475 368.738 29.1973 349.499 29.1973C316.792 29.1973 293.491 62.5456 293.491 109.789Z" fill="#664D36"/>
<path fill-rule="evenodd" clip-rule="evenodd" d="M480.926 193.088C475.12 192.057 470.632 188.822 467.334 183.614C465.837 181.691 464.341 181.691 462.631 183.401C455.363 190.455 446.598 194.089 438.688 194.089C417.525 194.089 403.844 176.346 403.844 147.701C403.844 119.911 417.314 100.452 445.376 100.452C447.88 100.452 451.406 100.942 454.281 101.78C458.193 102.922 459.875 103.685 459.995 98.9952C460.169 92.2056 460.569 76.5152 440.185 76.5152C432.917 76.5152 424.793 81.4319 416.029 89.3415C412.608 92.548 409.616 92.1205 408.119 87.2038C402.989 72.2398 403.63 66.6818 413.891 63.2614C420.946 60.91 431.42 59.1998 440.185 59.1998C473.158 59.1998 487.392 74.3535 487.392 111.957V160.746C487.392 179.939 509.172 179.734 509.172 160.746V59.1994C509.386 51.9312 508.103 48.2971 502.759 45.5181C499.125 43.5941 497.842 41.2427 497.842 38.2499C498.056 33.3331 501.262 30.9817 505.752 30.9817H527.342C533.114 30.9817 536.107 33.7607 536.107 39.5325V165.35C535.893 173.046 537.176 176.252 541.238 178.604C545.727 180.955 547.223 183.093 547.223 186.3C547.223 191.216 543.803 193.782 539.1 193.782H509.017C507.635 193.816 506.329 193.856 505.085 193.897C504.453 193.918 503.831 193.94 503.219 193.961C500.711 194.047 498.381 194.127 496.267 194.142C492.305 194.17 484.657 193.98 480.926 193.088ZM428.819 147.701C428.819 166.718 436.578 178.625 453.514 173.414C460.811 171.169 462.214 167.089 462.214 157.107C462.214 154.176 462.166 134.067 462.064 131.263C462.064 119.924 458.149 117.087 450.499 115.978C450.291 115.948 450.08 115.917 449.866 115.886C438.08 114.161 428.819 123.463 428.819 147.701Z" fill="#664D36"/>
<path fill-rule="evenodd" clip-rule="evenodd" d="M628.427 193.095C622.621 192.063 618.133 188.829 614.835 183.621C613.338 181.697 611.842 181.697 610.132 183.407C602.864 190.461 594.099 194.095 586.189 194.095C565.026 194.095 551.345 176.352 551.345 147.707C551.345 119.917 564.815 100.458 592.877 100.458C595.381 100.458 598.039 101.233 600.392 101.919C604.368 103.079 607.47 103.984 607.47 100.458C607.47 100.039 607.482 99.549 607.496 99.0013C607.67 92.2117 608.07 76.5213 587.686 76.5213C580.418 76.5213 572.294 81.438 563.53 89.3476C560.109 92.5541 557.117 92.1266 555.62 87.2099C550.49 72.2459 551.131 66.6879 561.392 63.2675C568.446 60.916 578.921 59.2059 587.686 59.2059C620.659 59.2059 634.893 74.3596 634.893 111.963V157.113C634.893 159.246 634.931 164.034 635.004 165.737C635.004 177.53 636.194 178.095 641.153 180.705C649.771 185.24 646.596 194.148 640.246 194.148C636.284 194.176 632.158 193.986 628.427 193.095ZM576.32 147.707C576.32 166.724 584.079 178.631 601.015 173.42C608.312 171.175 609.715 167.095 609.715 157.113C609.715 154.182 609.667 134.073 609.565 131.269C609.565 119.93 605.65 117.093 598 115.984C597.792 115.954 597.581 115.923 597.367 115.892C585.581 114.167 576.32 123.469 576.32 147.707Z" fill="#664D36"/>
<path fill-rule="evenodd" clip-rule="evenodd" d="M66.7208 59.314C67.1976 60.6263 67.5949 61.8695 67.0451 62.5744C66.5473 63.2127 65.2375 62.9745 64.3677 62.8163C64.277 62.7998 64.191 62.7841 64.1113 62.7705C58.415 61.7936 52.8293 60.1191 47.2325 58.4413C41.5207 56.729 35.7973 55.0133 29.9333 54.0321C-6.25573 43.7382 22.5824 69.7343 39.8415 85.2925C44.0094 89.0496 47.5021 92.1981 49.2407 94.0797C53.1563 98.5367 47.4072 100.046 42.3098 101.384C42.2265 101.406 42.1434 101.427 42.0604 101.449C-22.5896 117.751 -2.33432 121.756 39.5688 129.41L39.7922 129.451C50.7953 131.461 51.4115 131.573 42.0639 139.351C39.735 141.288 37.0717 143.444 34.2718 145.71C18.0253 158.861 -2.82301 175.736 10.3413 175.359C43.4957 169.223 56.7572 161.936 59.8769 164.995C62.6373 167.701 57.4567 178.507 51.0907 205.379C51.0485 205.858 50.9673 206.431 50.8787 207.056C50.3991 210.438 49.7018 215.355 53.7797 215.434C63.3269 210.898 70.9285 203.193 78.5659 195.453C81.875 192.099 85.1908 188.739 88.6744 185.626C94.9695 180.001 95.0894 180.57 96.7353 188.383L96.7806 188.598C96.9819 189.553 97.1806 190.504 97.3785 191.451C98.6871 197.714 99.9647 203.828 101.785 210.17C113.28 252.522 119.956 222.572 125.462 197.87C126.193 194.588 126.904 191.399 127.602 188.485C129.948 178.7 130.382 177.796 137.796 184.974C140.035 187.142 142.192 189.4 144.342 191.651C151.349 198.987 158.286 206.249 167.781 210.085C177.654 210.7 169.407 187.97 165.078 176.036C164.254 173.765 163.572 171.885 163.184 170.632C161.773 166.075 161.377 162.525 164.92 163.619C169.701 164.566 175.643 166.071 181.753 167.619C196.452 171.343 212.123 175.312 214.926 172.342C219.908 166.139 210.531 158.77 203.212 153.018C200.63 150.988 198.303 149.16 196.955 147.655C193.506 144.479 190.198 141.314 186.906 138.112C186.184 137.41 185.419 136.744 184.678 136.098C182.3 134.027 180.174 132.175 180.548 130.074C180.956 127.78 184.457 127.002 187.987 126.217C188.7 126.059 189.415 125.9 190.105 125.729C194.839 124.551 199.556 123.483 204.282 122.413C210.383 121.031 216.498 119.646 222.68 118.02C244.756 111.493 232.023 108.77 220.202 106.242C218.582 105.896 216.979 105.553 215.485 105.205C212.198 104.48 208.959 103.771 205.742 103.067C200.063 101.825 194.451 100.596 188.763 99.3211C188.447 99.2502 188.139 99.1814 187.839 99.1145C177.829 96.8786 176.949 96.6819 185.268 88.4433C187.354 86.3782 189.742 84.0824 192.242 81.6786C200.59 73.6536 210.191 64.4238 213.971 58.5455C216.458 54.6782 216.972 51.0802 211.858 52.593C208.186 53.7456 204.523 54.9354 200.859 56.1255C193.804 58.417 186.746 60.7098 179.609 62.7411C178.396 63.0866 177.202 63.4792 176.061 63.855C169.867 65.8935 165.189 67.4331 166.981 58.2238C167.738 54.3318 169.082 49.32 170.496 44.0492C174.197 30.2514 178.374 14.6781 173.742 12.7685C170.314 11.3547 161.951 21.0804 152.99 31.5027C148.8 36.3755 144.479 41.4006 140.47 45.5107C140.232 45.7767 139.984 46.0578 139.73 46.3473C137.574 48.7977 134.891 51.8469 132.466 51.385C130.135 50.941 129.426 47.8728 128.822 45.2568C128.724 44.8301 128.628 44.4153 128.528 44.026C128.012 41.8364 127.544 39.7443 127.085 37.6969C125.882 32.32 124.747 27.2516 122.995 21.5356C122.743 20.7817 122.434 19.6622 122.066 18.3262C119.894 10.4548 115.648 -4.93475 108.839 2.60234C107.425 5.25929 105.76 11.8597 103.971 18.9465C101.027 30.6131 97.75 43.5979 94.7185 42.4776C45.0911 -0.216466 47.1906 5.56179 66.5771 58.9184L66.7208 59.314ZM139.085 132.662C141.015 138.544 130.917 153.666 110.925 153.666C90.9328 153.666 81.0472 138.769 81.9702 133.319C82.9547 127.506 99.2862 124.963 110.925 124.963C123.822 124.963 137.155 126.779 139.085 132.662Z" fill="#664D36"/>
</svg>
